<svg xmlns="http://www.w3.org/2000/svg" viewBox="0 0 123.618 90.676"><defs><style>.a{fill:#0468b1;}.b{fill:#0a4c73;}.c{fill:#32bee1;}.d{fill:#a41e41;}.e{fill:#f91c25;}.f{fill:#ef3b8b;}.g{fill:#418246;}.h{fill:#61ba46;}.i{fill:#ffc10e;}</style></defs><g transform="translate(-1.957 -3.132)"><g transform="translate(1.978 49.156)"><path class="a" d="M-5.144-3.822c0,4.438-2.339,6.241-5.469,6.241-2.961,0-5.192-1.672-5.192-6.177v-8.516h1.89V-3.7C-13.916-.478-12.48.9-10.549.9-8.427.9-7.031-.519-7.031-3.7v-8.579h1.887ZM-21.3,5.828H.355V-15.823H-21.3Z" transform="translate(21.295 15.823)"/></g><g transform="translate(24.963 49.156)"><path class="a" d="M-5.178-5.752H-7.066l-4.59-7.335a43.015,43.015,0,0,1-2.682-4.826l-.065.02c.111,1.825.13,3.559.13,5.962v6.179h-1.762V-20.211h2.061L-9.361-12.9A38.585,38.585,0,0,1-6.789-8.2l.066-.018c-.171-1.932-.214-3.69-.214-5.922v-6.07h1.759ZM-21.434-2.158H.215V-23.81H-21.434Z" transform="translate(21.434 23.81)"/></g><g transform="translate(24.963 72.134)"><path class="a" d="M-4.66-3.429A6,6,0,0,1-9.077-1.844a6.471,6.471,0,0,1-1.5-.127V3.819h-1.868V-10.444a19.168,19.168,0,0,1,3.581-.3,5.946,5.946,0,0,1,4.055,1.2A3.9,3.9,0,0,1-3.524-6.519,4.19,4.19,0,0,1-4.66-3.429M-19.292,7.457H2.358V-14.194h-21.65Z" transform="translate(19.292 14.194)"/></g><g transform="translate(33.676 77.151)"><path class="a" d="M-.559,0A9.317,9.317,0,0,0-2.315.151V5.769A6.309,6.309,0,0,0-.772,5.92C1.5,5.92,2.854,4.8,2.854,2.853,2.854.921,1.5,0-.559,0" transform="translate(2.315 0)"/></g><g transform="translate(1.957 72.156)"><path class="a" d="M-4.842-5.1c-1.374,1.352-3.6,2.08-6.413,2.08a26.246,26.246,0,0,1-3.411-.171V-17.414a26.766,26.766,0,0,1,3.989-.3c2.682,0,4.589.6,5.858,1.78a6.659,6.659,0,0,1,2.057,5.213A7.742,7.742,0,0,1-4.842-5.1m-15.2,5.63H1.606V-21.124h-21.65Z" transform="translate(20.044 21.124)"/></g><g transform="translate(9.223 77.046)"><path class="a" d="M-.7,0A10.58,10.58,0,0,0-2.883.192V11.624A12.286,12.286,0,0,0-1,11.709c3.989.022,6.156-2.229,6.156-6.134C5.181,2.122,3.249,0-.7,0" transform="translate(2.883)"/></g><g transform="translate(29.862 23.953)"><path class="a" d="M0,0,.186.185c.184.125.058.393.255.5.231.12.316.388.417.589A.575.575,0,0,0,.911,1.1C.994.774.982.406,1.084.084A2.517,2.517,0,0,1,0,0"/></g><g transform="translate(26.034 26.58)"><path class="a" d="M-.013-.115C.129-.265.432-.258.444-.473.236-.5.129-.39-.013-.276c-.018.047-.084.131,0,.161" transform="translate(0.055 0.478)"/></g><g transform="translate(18.056 29.585)"><path class="a" d="M-1.82-.459A6.9,6.9,0,0,1-5.66-1.9c.036.142.225.233.173.41a.506.506,0,0,1-.478.161c-.339-.054-.589.2-.91.238-.292.089-.393-.268-.661-.238a9.36,9.36,0,0,0,5.763,2.47l.168.114-.072-.2V-.519Z" transform="translate(7.536 1.899)"/></g><g transform="translate(17.656 24.012)"><path class="a" d="M-.127-.309C-.11-.417-.27-.446-.252-.553c.114-.221.006-.578.3-.674A.683.683,0,0,1-.527-1.28l.091.143A4.894,4.894,0,0,1-.353.03c.064-.112.083-.268.226-.339" transform="translate(0.527 1.28)"/></g><g transform="translate(18.186 23.152)"><path class="a" d="M-.156-.291-.2.025C-.274.21-.506.073-.613.2c-.077.118.006.243.071.338-.167.382.375.5.37.846.166.214-.024.525.214.715.053.387-.053.911.286,1.214l.06.369c.071.255-.3.19-.257.416.071-.036.089.059.1.083V4.169A15.877,15.877,0,0,1,1.757,2.609L1.53,2.383A5.958,5.958,0,0,1,.614.341L.441.251a5.339,5.339,0,0,0-.083.53L.3.854C.173.847.1.746-.011.68-.035.615-.1.507,0,.454A.2.2,0,0,1,.143.495C.2.43.173.335.2.251.221.108.1-.023.184-.148c.114-.012.2.124.245.2.113.036.2-.059.3-.1,0-.1.142-.237-.013-.3a1.414,1.414,0,0,0-.011-.7c-.065-.2-.286-.161-.446-.143-.482.155.077.518-.043.816C.149-.2-.03-.362-.156-.291" transform="translate(0.644 1.204)"/></g><g transform="translate(31.089 15.808)"><path class="a" d="M0-.419c.124.03.161.179.243.268.435.233.548.7.929.959.213.447.708.792.726,1.3a9.452,9.452,0,0,1,.9,3.7l-.048.071A.24.24,0,0,0,2.9,5.826L4.613,5.8c-.113-.166-.065-.411-.095-.614A11.765,11.765,0,0,0,1.386-1.735,13.813,13.813,0,0,1,.2-.461Z" transform="translate(0 1.735)"/></g><g transform="translate(31.302 23.964)"><path class="a" d="M-.838-.023-.941-.1l.06.162A9.591,9.591,0,0,1-2.769,5.353a3.9,3.9,0,0,1-.7.768,12.269,12.269,0,0,1,1.328,1.3l.048-.089A11.468,11.468,0,0,0,.876.066L.947-.076.857-.035Z" transform="translate(3.471 0.096)"/></g><g transform="translate(24.516 31.097)"><path class="a" d="M-.029-.51A9.158,9.158,0,0,1,1.4-.713a.508.508,0,0,1-.262-.155c-.28-.018-.411-.309-.5-.53C.6-1.558.7-1.689.769-1.826.651-2.071.28-1.891.066-1.98c-.059-.049-.1-.121-.184-.132l.089.132a12.184,12.184,0,0,1,0,1.47" transform="translate(0.118 2.112)"/></g><g transform="translate(24.606 30.555)"><path class="a" d="M-2.006,0c-.166.328-.535.536-.815.786-.386.388-1.018.47-1.214,1.031-.208.19-.28.488-.572.6-.106.286-.412.268-.584.476-.5.447-.821-.285-1.273-.375l-.912.161a2.868,2.868,0,0,1-.928.011,14.238,14.238,0,0,1,0,1.87l.114-.071A11.581,11.581,0,0,0-.72,1.339L-1.976.143Z" transform="translate(8.304)"/></g><g transform="translate(24.557 17.107)"><path class="a" d="M-.611-.129A10.526,10.526,0,0,0-2.528-.534l.06.13L-2.479,1.21l.155-.03A5.222,5.222,0,0,1,.349,2.271L.39,2.4a14.393,14.393,0,0,1,.988-1.054l.3-.172-.143-.06A6.957,6.957,0,0,0-.611-.129" transform="translate(2.528 0.534)"/></g><g transform="translate(16.472 30.68)"><path class="a" d="M-2.371-.848l.059-.089L-2.5-.889a9.391,9.391,0,0,1-6.073-2.62l-.017.072L-9.813-2.2A12.058,12.058,0,0,0-3.466.765,9.869,9.869,0,0,1-2.282.909L-2.371.765Z" transform="translate(9.813 3.509)"/></g><g transform="translate(15.371 17.553)"><path class="a" d="M-.747-.036-1.39.78a9.5,9.5,0,0,0-1.7,4.942l1.632-.03.155.059c-.066-.041-.048-.113-.072-.172a7.188,7.188,0,0,1,1.9-4.472A11.973,11.973,0,0,1-.735-.149Z" transform="translate(3.093 0.149)"/></g><g transform="translate(15.329 24.037)"><path class="a" d="M-.023-.038l.13,1.1A8.243,8.243,0,0,1,.333,2.3c.066-.089.024-.267.186-.285-.067-.132.124-.244.017-.358A1.186,1.186,0,0,1,.876.874c.3-.013.327-.411.63-.429.155-.006.25.2.316.274A1.131,1.131,0,0,1,1.69-.156L1.559-.1A14.2,14.2,0,0,1-.1-.139Z" transform="translate(0.096 0.156)"/></g><g transform="translate(17.687 19.267)"><path class="a" d="M-.556,0a7.029,7.029,0,0,0-1.6,3.3,5.287,5.287,0,0,1-.143.887,1.51,1.51,0,0,1,.745-.029c-.137-.072-.024-.244-.1-.34-.017-.149-.041-.333.1-.429-.017-.244.243-.369.268-.59.064-.25.35-.083.488-.213.089-.049.012-.132.012-.2.118-.162.3-.155.446-.244a1.251,1.251,0,0,1,.4-.417c.357.011.363-.488.7-.5A14.38,14.38,0,0,1-.556,0" transform="translate(2.3)"/></g><g transform="translate(19.819 27.394)"><path class="a" d="M-.933-.448A1.12,1.12,0,0,1-.487-.739c-.526.107-1-.275-1.446-.483a2.308,2.308,0,0,1-.745-.631A8.765,8.765,0,0,1-3.861-.638c.184.011.286.215.439.3A7.435,7.435,0,0,0-.378,1.022L-.666.892C-.88.648-1.183.362-1.2.023-.98-.05-1-.287-.933-.448" transform="translate(3.861 1.853)"/></g><g transform="translate(28.962 28.942)"><path class="a" d="M-.1-.719l.083-.113a8.186,8.186,0,0,0,1.06-.887h.042c-.071-.024-.161.048-.245.011a.38.38,0,0,1-.2-.4l-.733-.756-.041-.113a.977.977,0,0,1-.269.34c.008.095-.028.237.085.3.237.077.547.233.6.512-.1.261-.6.5-.287.786.1.142-.141.2-.1.315" transform="translate(0.394 2.975)"/></g><g transform="translate(27.415 19.208)"><path class="a" d="M-.8-.337A7.018,7.018,0,0,0-1.6-1.4l-.028.071C-2.172-.755-2.774-.165-3.3.419a.408.408,0,0,0,.162.172c.024-.143.1-.268.112-.416.143-.2.358-.072.543-.03A4.03,4.03,0,0,1-1.638.2c.215.106.234.381.43.488a.166.166,0,0,1-.06.225c.06.447.274-.119.5-.011.094.035.214.024.285.124.035.185.262.149.275.328-.019.089-.113.113-.174.161.054.179-.185.291-.1.482.345.065.356-.333.517-.512A3.233,3.233,0,0,0-.3.591C-.494.549-.613.318-.808.275-1.19.127-.75-.111-.8-.337" transform="translate(3.298 1.397)"/></g><g transform="translate(23.86 27.228)"><path class="a" d="M-.359-.263c.155.031.047.2.16.256C.046-.084.231.2.427.023.415-.257.731-.232.9-.305c.268-.16.573-.375.542-.732L1.4-1.09c-.184,0-.28.143-.417.256C.82-.74.736-1.013.6-.947c.005.029.036.042.059.053a.135.135,0,0,1,0,.173c-.2.184-.3-.089-.488-.071v.071C.177-.68.16-.614.1-.638c-.119-.2-.363-.124-.482-.3-.077-.041-.149.012-.2.06-.04.089-.231-.012-.186.143-.147.054-.165.215-.272.309-.184-.03-.267.178-.441.173.018.036,0,.1.055.1a.6.6,0,0,0,.345.042c.179-.286.476-.048.727-.155" transform="translate(1.485 1.09)"/></g><g transform="translate(29.659 23.995)"><path class="a" d="M-.537-.491A7.824,7.824,0,0,1-1.58,1.782c-.2.25-.387.6-.644.727l.542.476c.031-.03.013-.077.018-.118,0-.071.036-.155.126-.143.262-.006.268.274.416.416-.03.227.167.4.1.614A8.842,8.842,0,0,0,1.367-1.921l.082-.1C.914-1.962.349-2-.206-1.992l-.13-.042A6.493,6.493,0,0,1-.42-.962l.2.214a.219.219,0,0,1-.042.274A.233.233,0,0,1-.537-.491" transform="translate(2.224 2.034)"/></g><g transform="translate(24.574 19.464)"><path class="a" d="M-.137-.66C0-.583.077-.725.19-.756a.721.721,0,0,1,.4.268C.7-.439.8-.506.893-.54c.067-.5.686-.424.869-.888l-.114.042c-.047-.067-.166-.036-.159-.144a1.237,1.237,0,0,1,.356-.285,6.068,6.068,0,0,0-1.7-.774,5.862,5.862,0,0,1-.716-.143A11.229,11.229,0,0,1-.481-1.5l.428.143c.125-.209.4-.25.517-.446.08-.066.168,0,.227.071a1.181,1.181,0,0,1-.071.476c-.161.321-.542.363-.756.6" transform="translate(0.567 2.732)"/></g><g transform="translate(26.76 25.655)"><path class="a" d="M-.66-.6c.024.2-.214.287-.184.483a.422.422,0,0,1-.328.1A5.6,5.6,0,0,0-2.66-.361a.1.1,0,0,0-.071.113c.214.113.476.119.7.215.2.054.338.3.6.227.214-.119.57.071.713-.155-.024-.22.168-.381.262-.57l.072-.019c.119.126.114.31.166.447.167-.179.3-.375.447-.56A5.325,5.325,0,0,0,1.1-2.5a1.788,1.788,0,0,0-.469.083C.455-2.433.246-2.332.1-2.45.043-2.5.008-2.426.014-2.378c-.061.089-.119.2-.256.16-.109-.047-.109-.16-.143-.244a.623.623,0,0,1-.031.185,2.085,2.085,0,0,0-.255.4c-.125.137-.328.089-.458.2-.024.286-.34.226-.518.316-.013.036.03.042.047.071a.231.231,0,0,0,.256-.059c.251.064.2-.251.34-.357.126-.018.245-.125.375-.042a.838.838,0,0,1,.143.6C-.63-1-.557-.77-.66-.6" transform="translate(2.731 2.504)"/></g><g transform="translate(20.176 24.769)"><path class="a" d="M-.231-.095C-.291-.126-.3-.119-.344-.066c-.03,0-.066.007-.089-.012,0-.338-.381-.136-.524-.315.168.309.256.661.428.97.108.274.345.489.453.756A4.107,4.107,0,0,1,.425.75.317.317,0,0,0,.371.517C.316.393.364.214.268.107.114.16.323.316.257.4A.094.094,0,0,1,.114.333.392.392,0,0,1-.171.065c.113-.071-.03-.1-.06-.16" transform="translate(0.957 0.393)"/></g><g transform="translate(21.801 25.239)"><path class="a" d="M-.078,0A.863.863,0,0,1-.322.388L-.3.4C-.161.3-.06.113.125.1Z" transform="translate(0.322)"/></g><g transform="translate(21.514 25.739)"><path class="a" d="M0-.377A4.543,4.543,0,0,0,2.144.611C2.187.45,2.121.248,2.2.112c.06-.132.221-.126.34-.1a.1.1,0,0,0,.071-.155C2.441-.18,2.519-.371,2.46-.478c.005-.06.107-.048.083-.126-.119-.094.06-.2-.042-.3.028-.02.052-.054.08-.075-.359.151-.744-.067-1.063-.211-.154-.089-.38-.178-.416-.369A9.192,9.192,0,0,1,0-.377" transform="translate(0 1.562)"/></g><g transform="translate(24.557 12.308)"><path class="a" d="M-.083-.432c.049-.1.186-.061.256-.03L1.03-.831a1.192,1.192,0,0,1,.93.356v.042a.755.755,0,0,1-.774.2c-.393.077-.942.3-1.257-.1-.012-.03-.048-.071-.012-.1M5.031.65A.357.357,0,0,1,5.3.865c-.03.136.125.25.03.357-.321.083-.35-.281-.6-.369A.238.238,0,0,1,4.687.681C4.8.544,4.906.77,5.031.65m-5.36-.8A.247.247,0,0,1-.273-.29c.083-.048.154.024.19.083.005.083.042.227-.029.275C-.041.079-.005.026.06.026A8.873,8.873,0,0,1,3.817,1.169v-.03c.232-.113.53-.262.768-.059.287-.107.34.243.572.285a1.249,1.249,0,0,1,.631.8c.053.108.22.184.244.3a4.567,4.567,0,0,1,.9-1.043l.2-.083A11.108,11.108,0,0,0,.817-1.647,9.21,9.21,0,0,1-.345-1.79,8.1,8.1,0,0,1-.328-.147" transform="translate(0.345 1.79)"/></g><g transform="translate(1.978 3.132)"><path class="a" d="M-11.544-8.989c-.793.519-1.6,1-2.359,1.59v-.071c1.168-1.941.6-4.6,1.317-6.733l.268-.714c-.149,1.328.43,2.454.387,3.786a4.279,4.279,0,0,1-.726,2.161h.071A27.358,27.358,0,0,1-10.9-11.234c1.035-1,2.089-2.023,2.227-3.411a5.869,5.869,0,0,1-2.87,5.656m-2.531,3.6c-1.023.275-2.118.363-3.114.7,1.685-1.446,1.59-3.684,2.715-5.387A17.751,17.751,0,0,1-13.4-11.519c-.683,1.376-.388,3.156-1.172,4.489A5.911,5.911,0,0,1-15.79-5.571c.155-.007.293-.142.429-.231,1.279-1.276,2.946-1.633,4.328-2.667a4.162,4.162,0,0,0,1.3-1.644c-.262,2.114-2.363,4.1-4.346,4.727m-1.113,2.042c-2.007.757-4.024-.172-5.947-.482l-.369-.048v-.011A5.4,5.4,0,0,0-18.963-5.03,26.168,26.168,0,0,1-15.73-7.948c-.887,1.138-.982,2.758-2.447,3.489a9.239,9.239,0,0,1-1.2.46,12.473,12.473,0,0,0,1.553-.233c1.965-.309,4.215.007,5.591-1.666a5.277,5.277,0,0,1-2.959,2.553M-17.1-1.5a5.346,5.346,0,0,1-5.044-1.089c-.565-.357-1.065-.875-1.8-.827a2.547,2.547,0,0,0-.746.071A13.788,13.788,0,0,1-20.922-.731a5.578,5.578,0,0,1-.684.619,13.367,13.367,0,0,0-3.716-3.019,2.407,2.407,0,0,0-.767.328A11.434,11.434,0,0,0-29.148-.071l-.715-.589a13.078,13.078,0,0,1,3.787-2.7c-1.358-.429-2.245.709-3.276,1.286a4.812,4.812,0,0,1-4.381.655,4.782,4.782,0,0,1-2.1-1.44,4.658,4.658,0,0,0,4.143.357c1.744-.757,3.553-1.714,5.656-1.256.327.005.648.333.958.053a6.713,6.713,0,0,1,4.673.589l1.387.554A4.59,4.59,0,0,0-14.961-3,4.809,4.809,0,0,1-17.1-1.5M-38.621-5.7c1.583,1.8,4.174,1.2,6.287,1.672a2.938,2.938,0,0,0,.887.113c-.25-.161-.6-.142-.874-.285-1.656-.584-1.9-2.376-2.8-3.584A25.6,25.6,0,0,1-31.947-5,5.526,5.526,0,0,0-29.3-3.827c-.233.083-.537.06-.786.125-1.734.429-3.662,1.126-5.5.5a5.34,5.34,0,0,1-3.029-2.5m-2.542-4.174c.988,2.238,3.464,2.423,5.126,3.786a4.1,4.1,0,0,0,.97.661l.017-.017a5.716,5.716,0,0,1-1.09-1.185c-.97-1.351-.63-3.244-1.356-4.7a10.9,10.9,0,0,1,1.66,2.511c.6,1.465.822,3.121,2.2,4.228-1.489-.488-3.232-.352-4.542-1.27a6.256,6.256,0,0,1-2.983-4.017m-1.06-4.525c.143,1.97,2.262,3.012,3.245,4.644a5.483,5.483,0,0,0,.743.982c-.048-.209-.243-.387-.316-.6a4.241,4.241,0,0,1-.385-2.328,11.715,11.715,0,0,0,.356-3c.864,1.863.6,4.185,1.085,6.2a13.348,13.348,0,0,0,.548,1.256c-1.773-1.208-4.192-2.357-4.978-4.572a5.506,5.506,0,0,1-.3-2.584m.059-3.632a6.3,6.3,0,0,1,.37-1.3c-.364,1.857.887,3.2,1.3,4.81a14.618,14.618,0,0,0,.46,1.816c.023.012.041-.011.058-.029-.612-1.716.268-3.305,1.156-4.645a4.465,4.465,0,0,0,.446-1.185,10.027,10.027,0,0,1-.214,2.471c-.215,1.024-.536,1.995-.815,2.988a4.682,4.682,0,0,0-.042,1.97l-.089-.071c-.649-1.2-1.936-2.132-2.316-3.442a7.3,7.3,0,0,1-.309-3.388m.685-2a5.507,5.507,0,0,1,1.37-3.6c.024-.012.042-.036.071-.03-.9,1.376-.155,3.108-.2,4.673l-.12,1.6c.018.013.018.06.06.042.053-.177.065-.369.1-.554.214-1.292,1.333-2.209,2.315-3.1a2.532,2.532,0,0,0,.5-.744,6.633,6.633,0,0,1-.547,1.886c-.763,1.49-2.174,2.709-2.43,4.412-.125-1.631-1.239-2.852-1.125-4.584m2.387-4.745a2.961,2.961,0,0,1,1.572-1.053c-1.178.809-1.1,2.262-1.476,3.471-.12.447-.328.858-.43,1.316l.03.024a4.083,4.083,0,0,1,.971-1.429c.84-.774,2.078-1.257,2.488-2.4-.018,1.59-1.346,2.841-2.614,3.733a5.317,5.317,0,0,0-1.315,1.572c-.03-.4.06-.8.03-1.232-.137-1.388-.238-2.972.743-4m4.787-2.673a14.68,14.68,0,0,0-2.131,2.644,19.108,19.108,0,0,1-1.989,1.816,12.581,12.581,0,0,1,.875-2.3c.72-1.257,2.054-1.7,3.245-2.162m3.441.119a12.584,12.584,0,0,1,5.417-1.286,11.972,11.972,0,0,1,10.729,6.8,11.808,11.808,0,0,1,.786,8.37,12.147,12.147,0,0,1-6.614,7.716,12.149,12.149,0,0,1-11.634-.953A12.016,12.016,0,0,1-37-19.877a12.1,12.1,0,0,1,6.132-7.455m16.562.971a5.273,5.273,0,0,1,1.524,2.84l.143.333a12.525,12.525,0,0,1-3.226-3.428l-.989-1A8.377,8.377,0,0,1-14.3-26.361m3.1,2.869c.28,1.251-.125,2.472.13,3.733l-.011.012c-.68-1.339-2.125-1.97-3.119-3.042a4.281,4.281,0,0,1-.971-2.233c.572,1.375,2.107,1.678,2.989,2.834a3.7,3.7,0,0,1,.583.94l.03-.03A25.7,25.7,0,0,1-12.6-24.735a2.7,2.7,0,0,0-1-1.31,3.48,3.48,0,0,1,2.4,2.554m.743.275a5.575,5.575,0,0,1,.517,5.34,9.433,9.433,0,0,0-.6,2.2c-.053-.13-.064-.309-.111-.458-.417-1.6-1.936-2.744-2.56-4.257a7.934,7.934,0,0,1-.459-1.542c.667,1.232,2.309,1.87,2.757,3.227a6.3,6.3,0,0,1,.285,1.143.046.046,0,0,0,.048-.042,15.6,15.6,0,0,1,.053-4.245,3.513,3.513,0,0,0-.5-2.055c.268.156.388.453.572.686m.989,9.269c-.626.887-1.383,1.716-1.959,2.62a5.047,5.047,0,0,0-.132-2.275A19.716,19.716,0,0,1-12.6-18.145l.017-.614c.364,1.637,1.971,2.763,1.87,4.6a4.049,4.049,0,0,1-.184,1.214l.029.029L-10.8-13a18.276,18.276,0,0,1,.727-2.686,6.542,6.542,0,0,0,.917-3.887,6.608,6.608,0,0,1-.316,5.625m-38.315,21.4H-3.129V-37.21H-47.787Z" transform="translate(47.787 37.21)"/></g><g transform="translate(12.971 24.036)"><path class="a" d="M-1.392-1.98a3.611,3.611,0,0,1-.554-.572.828.828,0,0,1-.5-.38c-.058-.066,0-.185-.071-.233l-.071.089c-.207.1-.285-.113-.429-.2-.184-.1-.095-.453-.345-.386-.095-.007-.125-.113-.185-.173-.231.024-.29-.232-.416-.356-.024.053,0,.124-.072.159-.238.055-.322-.237-.482-.356-.042.018-.072.065-.132.054a.7.7,0,0,1-.244-.5c-.2-.221-.107-.571-.071-.84.036-.071.137-.112.12-.2.053-.124.184-.137.309-.143a.321.321,0,0,1,.121.113c.077-.048.249.007.184-.166a.787.787,0,0,1,.388-.143,2.418,2.418,0,0,0,.268.369l-.083-.13a9.325,9.325,0,0,1-.285-1.811c.006-.036-.078-.053-.031-.089l.013.018a1.741,1.741,0,0,1,.018-.334l-.162.06-1.656-.013A12.166,12.166,0,0,0-4.3-2.919,19.547,19.547,0,0,0-2.721-.693L-1.535-1.92Z" transform="translate(5.763 8.195)"/></g><g transform="translate(18.158 14.796)"><path class="a" d="M-.347-.495c-.369.256-.709.589-1.089.816a9.517,9.517,0,0,1,1.2,1.112l.042.114A7.138,7.138,0,0,1,3.381-.263a3.137,3.137,0,0,1,.94-.071,11.666,11.666,0,0,1-.013-1.715A9.153,9.153,0,0,0-.347-.495" transform="translate(1.436 2.049)"/></g><g transform="translate(21.483 21.638)"><path class="a" d="M-.793-.172a1.129,1.129,0,0,1-.755.446c-.078.1-.06.3-.243.286-.061.13-.263.208-.185.4a3.716,3.716,0,0,0-.1.686c-.35.22-.25-.291-.429-.4l-.058.1c-.071.018-.119-.024-.166-.071-.055-.018-.144-.036-.191.012-.078.131-.2.237-.167.416-.036.108-.215.071-.191.185a3.339,3.339,0,0,0,.6-.084c.138.036.25-.064.387-.071a.128.128,0,0,1,.083.143h.048a.241.241,0,0,0,.095-.287c.012-.124.149-.124.234-.16.077.036.029.113.042.172.267.1-.066.3-.1.441-.073.114,0,.369-.227.334a.083.083,0,0,1-.059-.1h-.03a.307.307,0,0,0,.162.268c.167-.137.171-.369.41-.4.125-.13-.053-.332.132-.44.31-.006.642-.137.888.113-.02.108-.061.156.028.245a1.172,1.172,0,0,1-.213.4.206.206,0,0,1-.061.226c-.083.363-.5.19-.743.316a1.883,1.883,0,0,0,1.316.357c.256-.012.143-.328.273-.47.083-.417.466-.13.7-.243a1.683,1.683,0,0,0,.2-.554A.393.393,0,0,1,.72,1.643c-.1-.137-.09-.388-.31-.411A.117.117,0,0,1,.434,1.09C.428.958.558.917.594.815.457.727.494.53.505.418.272.482.247.179.076.114.034-.024-.114-.047-.233-.071c-.286.137-.334-.215-.548-.3-.024-.065-.072-.16,0-.214.106-.089.25-.011.375-.018l-.1-.053c-.1-.108-.3-.041-.429,0,.118.118.07.332.142.482" transform="translate(3.284 0.713)"/></g><g transform="translate(24.545 14.737)"><path class="a" d="M-.009-.565a1.885,1.885,0,0,1,.686.024A6.969,6.969,0,0,1,3.88.745.86.86,0,0,1,3.605.316.065.065,0,0,1,3.678.293c.012-.185-.184-.28-.214-.447a.124.124,0,0,1,.13-.054,3.875,3.875,0,0,1,.524.614c.13-.054.237.03.333.1.174.1.066.322.2.441.024.351.452.547.427.9.008.083.108.017.144.058l.358.441a.177.177,0,0,0,.058.245c.161.071.25-.131.411-.1.232.13-.036.284-.012.428.089.006.2-.071.274.018.03.13-.106.214-.161.3,0,.13.107.1.2.13a.163.163,0,0,1,.143.215c.3.309-.087.643.055.97a.568.568,0,0,1-.155.584c.006.261-.232.422-.327.642l-.3.058c-.161.162.136.359-.024.459l.667.013-.073-.072a.978.978,0,0,1,.089-.845,1.892,1.892,0,0,1,.316-.655c.04-.011.118-.089.154,0a1.217,1.217,0,0,1-.1.614,1.833,1.833,0,0,1,.185.97c.589-.035,1.166-.048,1.744-.042l-.054-.112a8.557,8.557,0,0,0-.775-3.085c-.124.006-.213.108-.356.071a.112.112,0,0,1-.072-.119A8.335,8.335,0,0,0,6.808,2.3c-.3.03-.44-.322-.714-.357-.243-.1-.077-.494-.429-.388a.576.576,0,0,1-.375-.4.977.977,0,0,0-.34-.846c-.213-.078-.3.208-.516.16-.12-.058-.067-.214-.1-.316S4.189.006,4.208-.112c.279-.369-.339-.364-.2-.727C3.97-1.1,3.7-1.2,3.564-1.411A9.654,9.654,0,0,0,.677-2.237a2,2,0,0,1-.715-.1l.061.113C.01-1.672.045-1.083-.009-.565" transform="translate(0.038 2.339)"/></g><g transform="translate(21.373 19.512)"><path class="a" d="M-.81,0A4.053,4.053,0,0,0-3.351,1.2h.13c.142.143.375.113.483.3.053.107-.1.094-.1.184.03.024.072.03.1.072.111.041.087-.065.13-.114.149-.149.173.143.316.143a.22.22,0,0,1,.316.042c.095-.084.3-.006.327-.161.185-.2.084-.5.358-.626.095.054-.006.143.03.227.184.077.393-.155.542.03A3.762,3.762,0,0,1-.81,0" transform="translate(3.351)"/></g><g transform="translate(12.96 15.85)"><path class="a" d="M-.586-2.418-.629-2.65a9.676,9.676,0,0,1,1.787-5.1,4.822,4.822,0,0,1,.8-.911c-.388-.364-.791-.786-1.2-1.185l-.041-.161a11.709,11.709,0,0,0-3.048,6.5c-.065.356-.024.726-.1,1.089a11.836,11.836,0,0,1,1.841,0" transform="translate(2.427 10.009)"/></g><g transform="translate(16.432 12.367)"><path class="a" d="M-.436-1.4l.03-.082a9.443,9.443,0,0,1,6.085-2.56l-.055-.143L5.606-5.609l.049-.168a11.576,11.576,0,0,0-6.4,2.269c-.364.25-.686.631-1.053.846h.052A10.171,10.171,0,0,1-.436-1.4" transform="translate(1.804 5.777)"/></g><g transform="translate(19.86 17.094)"><path class="a" d="M-1.265-.019A6.944,6.944,0,0,0-5.237,1.665,15.593,15.593,0,0,1-3.969,2.851c.03-.042.06-.084.09-.131a5.459,5.459,0,0,1,1.815-.941,2.725,2.725,0,0,1,.9-.1,8,8,0,0,1,0-1.757Z" transform="translate(5.237 0.079)"/></g><path class="b" d="M72.409-13.577h3.619V-17.2H72.409Z" transform="translate(-17.492 101.487)"/><path class="a" d="M79.711-13.577H83.33V-17.2H79.711Z" transform="translate(-19.256 101.487)"/><path class="c" d="M87.874-13.577h3.619V-17.2H87.874Z" transform="translate(-21.228 101.487)"/><path class="d" d="M96.511-14.265h3.619v-3.62H96.511Z" transform="translate(-23.314 101.653)"/><path class="e" d="M106.329-12.508h3.619v-3.621h-3.619Z" transform="translate(-25.686 101.229)"/><path class="f" d="M117.622-16.021h3.619v-3.62h-3.619Z" transform="translate(-28.414 102.078)"/><path class="g" d="M128.913-12.025h3.619v-3.62h-3.619Z" transform="translate(-31.142 101.112)"/><path class="h" d="M141.207-17.113h3.619v-3.62h-3.619Z" transform="translate(-34.112 102.341)"/><path class="i" d="M156.994-10.155h3.619v-3.62h-3.619Z" transform="translate(-37.925 100.66)"/><path class="a" d="M74.509-39.177H73.141v9.812h1.368Zm3.662,2.9a5.626,5.626,0,0,0-1.131.432l.439.994a6.921,6.921,0,0,1,.943-.375,3.36,3.36,0,0,1,1.019-.155,1.411,1.411,0,0,1,.981.316,1.406,1.406,0,0,1,.348,1.078v.388l-1.188.039a4.7,4.7,0,0,0-2.46.6,1.835,1.835,0,0,0-.807,1.622,1.946,1.946,0,0,0,.62,1.594,2.38,2.38,0,0,0,1.563.51,2.962,2.962,0,0,0,1.374-.265,3.123,3.123,0,0,0,.949-.833h.052l.272.969h.969v-4.713a2.28,2.28,0,0,0-.652-1.8,2.881,2.881,0,0,0-1.956-.575,5.058,5.058,0,0,0-1.336.174M80.759-32.1a1.679,1.679,0,0,1-.535,1.357,2.007,2.007,0,0,1-1.336.451,1.35,1.35,0,0,1-.839-.245.926.926,0,0,1-.324-.787,1.135,1.135,0,0,1,.46-.956,3.066,3.066,0,0,1,1.646-.4l.929-.026Zm3.621-7.075v9.813h1.006l.259-.852h.1a2.6,2.6,0,0,0,.794.691,2.552,2.552,0,0,0,1.3.29,2.533,2.533,0,0,0,2.027-.91,4.081,4.081,0,0,0,.775-2.705,4.05,4.05,0,0,0-.769-2.685,2.519,2.519,0,0,0-2.02-.9,2.544,2.544,0,0,0-1.3.3,2.433,2.433,0,0,0-.8.736h-.064q.025-.207.045-.6c.014-.262.02-.532.02-.807v-2.363Zm4.854,6.314a3.412,3.412,0,0,1-.42,1.86,1.4,1.4,0,0,1-1.258.645A1.521,1.521,0,0,1,86.128-31a3.634,3.634,0,0,1-.381-1.841v-.1a3.389,3.389,0,0,1,.4-1.8,1.53,1.53,0,0,1,1.381-.587q1.7,0,1.7,2.466m7.75.594a2.046,2.046,0,0,0-.7-.639,7.974,7.974,0,0,0-1.091-.51q-.659-.258-1.026-.439a1.552,1.552,0,0,1-.516-.361.649.649,0,0,1-.149-.426q0-.736,1.265-.736a3.506,3.506,0,0,1,.969.136,7.5,7.5,0,0,1,.929.329l.453-1.046a6.2,6.2,0,0,0-1.091-.362,5.3,5.3,0,0,0-1.195-.129,3.44,3.44,0,0,0-1.929.484,1.567,1.567,0,0,0-.73,1.388,1.683,1.683,0,0,0,.245.943,2.1,2.1,0,0,0,.7.645,7.623,7.623,0,0,0,1.129.529,7.969,7.969,0,0,1,1.04.458,1.462,1.462,0,0,1,.484.388.719.719,0,0,1,.129.42.77.77,0,0,1-.342.658,1.963,1.963,0,0,1-1.117.245,4.363,4.363,0,0,1-1.194-.174,6.587,6.587,0,0,1-1.065-.394v1.2a3.767,3.767,0,0,0,.962.323,6.653,6.653,0,0,0,1.259.1,3.55,3.55,0,0,0,2.085-.529,1.8,1.8,0,0,0,.742-1.562,1.694,1.694,0,0,0-.245-.943" transform="translate(-17.669 106.797)"/><g transform="translate(54.981 52.938)"><path class="a" d="M-.59-.923a5.593,5.593,0,0,0-1.129.432L-1.281.5A6.971,6.971,0,0,1-.338.129,3.372,3.372,0,0,1,.682-.026,1.407,1.407,0,0,1,1.663.29a1.4,1.4,0,0,1,.349,1.078v.388L.824,1.794a4.688,4.688,0,0,0-2.46.6,1.833,1.833,0,0,0-.806,1.621A1.947,1.947,0,0,0-1.823,5.61a2.378,2.378,0,0,0,1.562.51,2.965,2.965,0,0,0,1.375-.265,3.111,3.111,0,0,0,.949-.832h.052l.271.968h.969V1.278A2.278,2.278,0,0,0,2.7-.523,2.876,2.876,0,0,0,.746-1.1,5.064,5.064,0,0,0-.59-.923M2,3.254A1.673,1.673,0,0,1,1.462,4.61a2,2,0,0,1-1.336.452,1.348,1.348,0,0,1-.84-.246.925.925,0,0,1-.322-.787,1.135,1.135,0,0,1,.458-.956,3.066,3.066,0,0,1,1.646-.4L2,2.647ZM9.537,6.017a2.942,2.942,0,0,0,.814-.322V4.507a4.018,4.018,0,0,1-.827.335,3.7,3.7,0,0,1-1.02.129,1.6,1.6,0,0,1-1.369-.62,2.982,2.982,0,0,1-.465-1.808Q6.671.065,8.556.064a2.945,2.945,0,0,1,.775.11q.4.11.761.239L10.506-.7A3.867,3.867,0,0,0,9.66-.981,4.913,4.913,0,0,0,8.57-1.1a3.7,3.7,0,0,0-1.7.381A2.708,2.708,0,0,0,5.69.465a4.443,4.443,0,0,0-.426,2.091,3.643,3.643,0,0,0,.878,2.705,3.178,3.178,0,0,0,2.323.859,4.8,4.8,0,0,0,1.072-.1m6.474,0a2.914,2.914,0,0,0,.814-.322V4.507A3.984,3.984,0,0,1,16,4.842a3.687,3.687,0,0,1-1.019.129,1.6,1.6,0,0,1-1.369-.62,2.982,2.982,0,0,1-.464-1.808q0-2.478,1.885-2.479a2.931,2.931,0,0,1,.774.11q.4.11.761.239L16.981-.7a3.861,3.861,0,0,0-.846-.284A4.908,4.908,0,0,0,15.044-1.1a3.706,3.706,0,0,0-1.7.381A2.712,2.712,0,0,0,12.165.465a4.452,4.452,0,0,0-.426,2.091,3.643,3.643,0,0,0,.878,2.705,3.178,3.178,0,0,0,2.324.859,4.78,4.78,0,0,0,1.071-.1M19.679-.665a2.9,2.9,0,0,0-1.1,1.246,4.527,4.527,0,0,0-.394,1.988,4.035,4.035,0,0,0,.432,1.964A2.847,2.847,0,0,0,19.827,5.72a3.825,3.825,0,0,0,1.782.4,6.4,6.4,0,0,0,1.265-.109,4.875,4.875,0,0,0,1.059-.356V4.519a6.146,6.146,0,0,1-1.078.368,5.288,5.288,0,0,1-1.195.123,1.969,1.969,0,0,1-1.5-.569A2.386,2.386,0,0,1,19.595,2.8h4.673v-.75a3.247,3.247,0,0,0-.788-2.3A2.8,2.8,0,0,0,21.325-1.1a3.085,3.085,0,0,0-1.646.432M22.506.471A2.214,2.214,0,0,1,22.9,1.794H19.621A2.215,2.215,0,0,1,20.143.439a1.542,1.542,0,0,1,1.182-.478,1.38,1.38,0,0,1,1.181.51m5.084-4.292H26.221V5.991h1.368ZM31.043-.665a2.906,2.906,0,0,0-1.1,1.246,4.527,4.527,0,0,0-.394,1.988,4.035,4.035,0,0,0,.432,1.964A2.847,2.847,0,0,0,31.19,5.72a3.825,3.825,0,0,0,1.782.4,6.429,6.429,0,0,0,1.267-.109A4.9,4.9,0,0,0,35.3,5.655V4.519a6.126,6.126,0,0,1-1.078.368,5.3,5.3,0,0,1-1.2.123,1.97,1.97,0,0,1-1.5-.569A2.386,2.386,0,0,1,30.958,2.8h4.674v-.75a3.251,3.251,0,0,0-.788-2.3A2.806,2.806,0,0,0,32.688-1.1a3.087,3.087,0,0,0-1.646.432M33.87.471a2.225,2.225,0,0,1,.394,1.323h-3.28A2.215,2.215,0,0,1,31.507.439a1.542,1.542,0,0,1,1.182-.478,1.381,1.381,0,0,1,1.182.51M39.756-.691a3.227,3.227,0,0,0-.865.962h-.052L38.658-.968H37.573V5.991h1.368V2.324a2.311,2.311,0,0,1,.278-1.168,1.937,1.937,0,0,1,1.711-1,2.686,2.686,0,0,1,.7.09l.142-1.279a4.237,4.237,0,0,0-.761-.064,2.033,2.033,0,0,0-1.252.407m4.8-.232a5.6,5.6,0,0,0-1.13.432L43.862.5A7.041,7.041,0,0,1,44.8.129a3.372,3.372,0,0,1,1.02-.155A1.409,1.409,0,0,1,46.8.29a1.406,1.406,0,0,1,.348,1.078v.388l-1.188.039a4.683,4.683,0,0,0-2.459.6A1.832,1.832,0,0,0,42.7,4.016a1.945,1.945,0,0,0,.62,1.594,2.377,2.377,0,0,0,1.562.51,2.963,2.963,0,0,0,1.375-.265,3.111,3.111,0,0,0,.949-.832h.052l.272.968H48.5V1.278a2.281,2.281,0,0,0-.652-1.8A2.878,2.878,0,0,0,45.888-1.1a5.054,5.054,0,0,0-1.336.174M47.14,3.254A1.675,1.675,0,0,1,46.6,4.61a2,2,0,0,1-1.336.452,1.347,1.347,0,0,1-.839-.246.926.926,0,0,1-.323-.787,1.135,1.135,0,0,1,.458-.956,3.069,3.069,0,0,1,1.647-.4l.929-.026Zm5.442,1.484a1.123,1.123,0,0,1-.278-.839V.077h1.988V-.968H52.305V-2.53h-.839l-.478,1.471-1.02.516v.62h.969V3.926a2.607,2.607,0,0,0,.284,1.33,1.552,1.552,0,0,0,.755.671,2.708,2.708,0,0,0,1.039.193,4.1,4.1,0,0,0,.749-.071,2.585,2.585,0,0,0,.594-.174V4.842a3.052,3.052,0,0,1-1.045.168,1,1,0,0,1-.73-.272M61.6.542a2.945,2.945,0,0,0-1.149-1.22,3.317,3.317,0,0,0-1.684-.42,3.137,3.137,0,0,0-2.4.936A3.755,3.755,0,0,0,55.487,2.5a4.236,4.236,0,0,0,.419,1.97A2.936,2.936,0,0,0,57.056,5.7a3.291,3.291,0,0,0,1.672.419,3.145,3.145,0,0,0,2.4-.942A3.742,3.742,0,0,0,62.02,2.5,4.186,4.186,0,0,0,61.6.542M57.334.678A1.584,1.584,0,0,1,58.741.039a1.617,1.617,0,0,1,1.427.639A3.175,3.175,0,0,1,60.613,2.5a3.247,3.247,0,0,1-.445,1.834,1.846,1.846,0,0,1-2.827,0A3.241,3.241,0,0,1,56.894,2.5a3.2,3.2,0,0,1,.44-1.826m8.8-1.369a3.224,3.224,0,0,0-.865.962h-.052L65.041-.968H63.956V5.991h1.368V2.324A2.3,2.3,0,0,1,65.6,1.156a1.937,1.937,0,0,1,1.71-1,2.677,2.677,0,0,1,.7.09l.142-1.279a4.231,4.231,0,0,0-.761-.064,2.033,2.033,0,0,0-1.252.407" transform="translate(2.442 3.821)"/></g></g></svg>
